<?xml version="1.0" encoding="UTF-8"?>
<svg id="Layer_2" data-name="Layer 2" xmlns="http://www.w3.org/2000/svg" viewBox="0 0 216.83 162.96">
  <g id="Layer_1-2" data-name="Layer 1">
    <g>
      <path d="M13.79,1.38L1.38,13.79c-1.85,1.85-1.85,4.84,0,6.68l61,61L1.38,142.49c-1.85,1.85-1.85,4.84,0,6.68l12.41,12.41c1.85,1.85,4.84,1.85,6.68,0l64.35-64.35,12.41-12.41c1.85-1.85,1.85-4.84,0-6.68l-12.41-12.41L20.48,1.38c-1.85-1.85-4.84-1.85-6.68,0Z"/>
      <rect x="98.83" y="135.75" width="118" height="27" rx="4.73" ry="4.73"/>
    </g>
    <!-- Nueva adición del isotipo temporal de INTELLISOFT -->
    <g id="IntelliSoft_Logo" data-name="IntelliSoft Logo" transform="translate(50,50)">
      <!-- > símbolo -->
      <path d="M4 8 L12 12 L4 16" stroke="#000000" stroke-width="2" fill="none" stroke-linecap="round" stroke-linejoin="round"/>
      <!-- _ símbolo -->
      <line x1="14" y1="18" x2="22" y2="18" stroke="#000000" stroke-width="2" stroke-linecap="round"/>
    </g>
  </g>
</svg>