<?xml version="1.0" encoding="UTF-8"?>
<svg id="Layer_2" xmlns="http://www.w3.org/2000/svg" xmlns:xlink="http://www.w3.org/1999/xlink" version="1.1" viewBox="0 0 247.5 34">
  <!-- Generator: Adobe Illustrator 29.0.1, SVG Export Plug-In . SVG Version: 2.1.0 Build 192)  -->
  <defs>
    <style>
      .st0 {
        fill: url(#linear-gradient1);
      }

      .st1 {
        fill: url(#linear-gradient);
      }

      .st2 {
        fill: #020002;
      }
    </style>
    <linearGradient id="linear-gradient" x1="214.5" y1="8.3" x2="197.1" y2="25.7" gradientUnits="userSpaceOnUse">
      <stop offset="0" stop-color="#0a3042"/>
      <stop offset="1" stop-color="#11506e"/>
    </linearGradient>
    <linearGradient id="linear-gradient1" x1="242.4" y1="23.9" x2="228" y2="38.4" xlink:href="#linear-gradient"/>
  </defs>
  <g id="Layer_1-2">
    <g>
      <g>
        <path class="st1" d="M205.1.3l-2.6,2.6c-.4.4-.4,1,0,1.4l12.7,12.7-12.7,12.7c-.4.4-.4,1,0,1.4l2.6,2.6c.4.4,1,.4,1.4,0l13.4-13.4,2.6-2.6c.4-.4.4-1,0-1.4l-2.6-2.6L206.5.3c-.4-.4-1-.4-1.4,0h0Z"/>
        <rect class="st0" x="222.9" y="28.3" width="24.6" height="5.6" rx="1.2" ry="1.2"/>
      </g>
      <g>
        <path class="st2" d="M6,4.1v29.9H0V4.1h6Z"/>
        <path class="st2" d="M32,12.6c1.7,1.8,2.6,4.3,2.6,7.5v13.9h-6v-13.1c0-1.9-.5-3.3-1.4-4.4s-2.2-1.5-3.9-1.5-3,.5-3.9,1.5c-1,1-1.4,2.5-1.4,4.4v13.1h-6V10.2h6v3c.8-1,1.8-1.8,3.1-2.4,1.2-.6,2.6-.9,4.1-.9,2.8,0,5.1.9,6.9,2.7Z"/>
        <path class="st2" d="M47.3,15.2v11.5c0,.8.2,1.4.6,1.7s1,.5,2,.5h2.8v5.1h-3.8c-5.1,0-7.6-2.5-7.6-7.4v-11.4h-2.8v-4.9h2.8v-5.9h6v5.9h5.3v4.9h-5.3Z"/>
        <path class="st2" d="M78.8,23.5h-17.4c.1,1.7.7,3.1,1.8,4,1.1,1,2.4,1.5,3.9,1.5,2.2,0,3.8-1,4.8-2.9h6.5c-.7,2.3-2,4.2-3.9,5.6-1.9,1.5-4.3,2.2-7.2,2.2s-4.3-.5-6.2-1.5c-1.8-1-3.2-2.5-4.2-4.3-1-1.9-1.5-4-1.5-6.4s.5-4.6,1.5-6.5c1-1.9,2.4-3.3,4.2-4.3s3.9-1.5,6.2-1.5,4.3.5,6.1,1.5,3.2,2.4,4.2,4.1,1.5,3.8,1.5,6.2,0,1.6-.2,2.3h0s0,0,0,0ZM72.8,19.5c0-1.5-.6-2.8-1.7-3.7-1.1-.9-2.4-1.4-4-1.4s-2.7.4-3.8,1.4c-1,.9-1.6,2.1-1.9,3.8,0,0,11.3,0,11.3,0Z"/>
        <path class="st2" d="M89.4,2.3v31.7h-6V2.3h6Z"/>
        <path class="st2" d="M101.3,2.3v31.7h-6V2.3h6Z"/>
        <path class="st2" d="M107.7,6.4c-.7-.7-1.1-1.5-1.1-2.5s.3-1.8,1.1-2.5c.7-.7,1.6-1,2.6-1s1.9.3,2.6,1c.7.7,1.1,1.5,1.1,2.5s-.3,1.8-1.1,2.5-1.6,1-2.6,1-1.9-.3-2.6-1ZM113.2,10.2v23.8h-6V10.2h6Z"/>
        <path class="st2" d="M123,33c-1.5-.7-2.8-1.6-3.7-2.9s-1.4-2.5-1.5-4h6.1c.1.9.6,1.7,1.3,2.3s1.8.9,2.9.9,2-.2,2.7-.7c.6-.5,1-1,1-1.8s-.4-1.4-1.2-1.7-2-.8-3.8-1.3c-1.8-.4-3.2-.9-4.3-1.3s-2.1-1.2-2.9-2.1c-.8-.9-1.2-2.2-1.2-3.8s.4-2.5,1.1-3.6c.8-1.1,1.8-1.9,3.3-2.6,1.4-.6,3.1-.9,5-.9,2.8,0,5.1.7,6.8,2.1s2.6,3.3,2.8,5.7h-5.8c0-.9-.5-1.7-1.2-2.2s-1.6-.8-2.8-.8-1.9.2-2.5.6c-.6.4-.9,1-.9,1.7s.4,1.4,1.2,1.8,2,.8,3.7,1.3c1.7.4,3.1.9,4.2,1.3,1.1.5,2.1,1.2,2.9,2.1.8,1,1.2,2.2,1.3,3.8,0,1.4-.4,2.6-1.1,3.7s-1.8,1.9-3.3,2.6-3.1.9-4.9.9-3.7-.3-5.2-1h0s0,0,0,0Z"/>
        <path class="st2" d="M146.9,32.5c-1.8-1-3.3-2.5-4.3-4.3-1-1.9-1.6-4-1.6-6.4s.5-4.6,1.6-6.4c1.1-1.9,2.5-3.3,4.4-4.3,1.9-1,3.9-1.5,6.2-1.5s4.4.5,6.2,1.5c1.9,1,3.3,2.4,4.4,4.3,1.1,1.9,1.6,4,1.6,6.4s-.6,4.6-1.6,6.4c-1.1,1.9-2.6,3.3-4.5,4.3-1.9,1-4,1.5-6.3,1.5s-4.4-.5-6.2-1.5h0ZM156.2,28c1-.5,1.7-1.3,2.3-2.4.6-1.1.9-2.3.9-3.9,0-2.3-.6-4-1.8-5.2-1.2-1.2-2.6-1.8-4.4-1.8s-3.1.6-4.3,1.8c-1.2,1.2-1.7,3-1.7,5.2s.6,4,1.7,5.2,2.6,1.8,4.3,1.8,2.1-.3,3.1-.8h0Z"/>
        <path class="st2" d="M180.8,15.2h-4.2v18.8h-6.1V15.2h-2.7v-4.9h2.7v-1.2c0-2.9.8-5.1,2.5-6.4,1.7-1.4,4.2-2,7.5-1.9v5.1c-1.5,0-2.5.2-3.1.7-.6.5-.9,1.4-.9,2.8v1h4.2v4.9h0Z"/>
        <path class="st2" d="M191.7,15.2v11.5c0,.8.2,1.4.6,1.7s1,.5,1.9.5h2.8v5.1h-3.8c-5.1,0-7.6-2.5-7.6-7.4v-11.4h-2.8v-4.9h2.8v-5.9h6.1v5.9h5.3v4.9h-5.3Z"/>
      </g>
    </g>
  </g>
</svg>