<?xml version="1.0" encoding="UTF-8"?>
<svg id="Layer_2" data-name="Layer 2" xmlns="http://www.w3.org/2000/svg" viewBox="0 0 247.52 34.02">
  <defs>
    <style>
      .cls-1 {
        fill: #020002;
      }
    </style>
  </defs>
  <g id="Layer_1-2" data-name="Layer 1">
    <g>
      <g>
        <path class="cls-1" d="M205.14.29l-2.59,2.59c-.39.39-.39,1.01,0,1.4l12.73,12.73-12.73,12.73c-.39.39-.39,1.01,0,1.4l2.59,2.59c.39.39,1.01.39,1.4,0l13.43-13.43,2.59-2.59c.39-.39.39-1.01,0-1.4l-2.59-2.59L206.53.29c-.39-.39-1.01-.39-1.4,0h.01Z"/>
        <rect class="cls-1" x="222.89" y="28.34" width="24.63" height="5.64" rx="1.21" ry="1.21"/>
      </g>
      <g>
        <path class="cls-1" d="M6.01,4.07v29.94H0V4.07s6.01,0,6.01,0Z"/>
        <path class="cls-1" d="M31.96,12.59c1.74,1.79,2.62,4.28,2.62,7.49v13.94h-6.01v-13.13c0-1.89-.47-3.34-1.42-4.35s-2.23-1.52-3.86-1.52-2.97.51-3.92,1.52c-.96,1.02-1.44,2.47-1.44,4.35v13.13h-6.01V10.25h6.01v2.96c.8-1.03,1.82-1.84,3.07-2.42,1.24-.59,2.61-.88,4.1-.88,2.83,0,5.12.89,6.86,2.68Z"/>
        <path class="cls-1" d="M47.27,15.18v11.5c0,.8.19,1.38.58,1.74s1.04.54,1.95.54h2.79v5.06h-3.77c-5.06,0-7.59-2.46-7.59-7.38v-11.45h-2.83v-4.93h2.83v-5.88h6.05v5.88h5.32v4.93h-5.33Z"/>
        <path class="cls-1" d="M78.84,23.55h-17.37c.14,1.72.74,3.06,1.8,4.03,1.06.97,2.36,1.46,3.9,1.46,2.23,0,3.82-.96,4.76-2.87h6.48c-.69,2.29-2,4.17-3.95,5.64-1.94,1.47-4.33,2.21-7.16,2.21-2.29,0-4.34-.51-6.16-1.52-1.82-1.02-3.23-2.45-4.25-4.31-1.02-1.86-1.52-4-1.52-6.43s.5-4.62,1.5-6.48c1-1.86,2.4-3.29,4.2-4.29s3.87-1.5,6.22-1.5,4.28.49,6.07,1.46,3.17,2.35,4.16,4.14,1.48,3.84,1.48,6.16c0,.86-.06,1.63-.17,2.32v-.02ZM72.79,19.52c-.03-1.54-.59-2.78-1.67-3.71-1.09-.93-2.42-1.39-3.99-1.39s-2.74.45-3.75,1.35c-1.02.9-1.64,2.15-1.87,3.75h11.28Z"/>
        <path class="cls-1" d="M89.39,2.27v31.74h-6.01V2.27h6.01Z"/>
        <path class="cls-1" d="M101.32,2.27v31.74h-6.01V2.27h6.01Z"/>
        <path class="cls-1" d="M107.65,6.41c-.7-.67-1.05-1.51-1.05-2.51s.35-1.84,1.05-2.51c.7-.67,1.58-1.01,2.64-1.01s1.94.34,2.64,1.01c.7.67,1.05,1.51,1.05,2.51s-.35,1.84-1.05,2.51-1.58,1.01-2.64,1.01-1.94-.34-2.64-1.01ZM113.24,10.25v23.76h-6.01V10.25h6.01Z"/>
        <path class="cls-1" d="M123.02,32.96c-1.54-.7-2.77-1.65-3.67-2.85s-1.39-2.53-1.48-3.99h6.05c.11.92.56,1.67,1.35,2.27.79.6,1.76.9,2.94.9s2.04-.23,2.68-.69c.64-.46.96-1.04.96-1.76,0-.77-.39-1.35-1.18-1.74s-2.04-.81-3.75-1.27c-1.77-.43-3.22-.87-4.35-1.33s-2.1-1.16-2.92-2.1c-.81-.94-1.22-2.22-1.22-3.82,0-1.32.38-2.52,1.14-3.6.76-1.09,1.84-1.94,3.26-2.57,1.42-.63,3.08-.94,5-.94,2.83,0,5.09.71,6.78,2.12s2.62,3.32,2.79,5.73h-5.75c-.09-.94-.48-1.7-1.18-2.25s-1.64-.84-2.81-.84c-1.09,0-1.92.2-2.51.6-.59.4-.88.96-.88,1.67,0,.8.4,1.41,1.2,1.82s2.04.84,3.73,1.26c1.72.43,3.13.87,4.25,1.33,1.11.46,2.08,1.17,2.9,2.12.81.96,1.24,2.22,1.26,3.8,0,1.37-.38,2.6-1.14,3.69s-1.84,1.94-3.26,2.55-3.07.92-4.95.92-3.69-.35-5.23-1.05v.02Z"/>
        <path class="cls-1" d="M146.92,32.5c-1.83-1.02-3.27-2.45-4.31-4.31-1.04-1.86-1.57-4-1.57-6.43s.54-4.57,1.61-6.43c1.07-1.86,2.54-3.3,4.4-4.31,1.86-1.01,3.93-1.52,6.22-1.52s4.36.51,6.22,1.52c1.86,1.02,3.32,2.45,4.4,4.31,1.07,1.86,1.61,4,1.61,6.43s-.55,4.58-1.65,6.43c-1.1,1.86-2.59,3.3-4.46,4.31-1.87,1.02-3.97,1.52-6.28,1.52s-4.35-.51-6.18-1.52h0ZM156.16,27.99c.96-.53,1.72-1.32,2.3-2.38.57-1.06.86-2.34.86-3.86,0-2.26-.59-4-1.78-5.21-1.19-1.21-2.64-1.82-4.35-1.82s-3.15.61-4.31,1.82c-1.16,1.22-1.74,2.95-1.74,5.21s.56,4,1.69,5.21,2.55,1.82,4.27,1.82c1.09,0,2.11-.26,3.07-.79h-.01Z"/>
        <path class="cls-1" d="M180.8,15.18h-4.16v18.83h-6.09V15.18h-2.7v-4.93h2.7v-1.2c0-2.92.83-5.06,2.49-6.43,1.66-1.37,4.16-2.02,7.51-1.93v5.06c-1.46-.03-2.47.22-3.05.73-.57.52-.86,1.44-.86,2.79v.99h4.16v4.93h0Z"/>
        <path class="cls-1" d="M191.7,15.18v11.5c0,.8.19,1.38.58,1.74s1.04.54,1.95.54h2.79v5.06h-3.77c-5.06,0-7.59-2.46-7.59-7.38v-11.45h-2.83v-4.93h2.83v-5.88h6.05v5.88h5.32v4.93h-5.33Z"/>
      </g>
    </g>
  </g>
</svg>